<svg width="174" height="60" viewBox="0 0 174 60" fill="none" xmlns="http://www.w3.org/2000/svg">
<path d="M53.7134 59.4101C55.402 59.4101 56.9536 59.1778 58.3683 58.6669C59.783 58.156 60.8782 57.4128 61.7453 56.3445C62.5668 55.2762 63.0231 53.9756 63.0231 52.3499C63.0231 50.7707 62.5668 49.3772 61.654 48.1696C60.7413 47.0084 59.6917 46.0794 58.4139 45.3362C57.1817 44.6395 55.6301 43.8499 53.7134 42.9674C52.1618 42.2706 51.0666 41.6668 50.3364 41.2023C49.6519 40.7378 49.2868 40.2269 49.2868 39.716C49.2868 39.2515 49.5606 38.8799 50.0626 38.6012C50.6102 38.3225 51.3404 38.1367 52.2987 38.1367C53.3027 38.1367 54.3067 38.4619 55.2194 39.0192C56.1321 39.6231 56.9992 40.4127 57.775 41.4346L62.5668 38.5083C62.156 37.4865 61.4715 36.511 60.5132 35.6285C59.5548 34.746 58.3683 34.0028 56.9536 33.4454C55.5389 32.8881 53.9416 32.6094 52.1618 32.6094C50.1538 32.6094 48.4197 32.9345 47.005 33.5848C45.5903 34.2351 44.495 35.164 43.7648 36.3252C43.0347 37.4864 42.6696 38.787 42.6696 40.2269C42.6696 41.5275 43.0347 42.6422 43.8105 43.5712C44.5863 44.5466 45.499 45.3362 46.5943 45.94C47.6439 46.5439 49.0586 47.2406 50.7471 48.0302C51.9336 48.5876 52.892 49.0521 53.5309 49.4701C54.2154 49.8417 54.763 50.3062 55.2194 50.7707C55.6758 51.2816 55.9039 51.839 55.9039 52.4428C55.9039 52.9537 55.6758 53.3718 55.265 53.6505C54.8543 53.9292 54.2611 54.0685 53.4853 54.0685C52.2987 54.0685 51.1122 53.6505 49.9257 52.8608C48.7391 52.0248 47.7352 50.8636 46.8681 49.3308L42.4414 52.5357C42.9434 53.8827 43.6736 55.0439 44.6776 56.0658C45.6815 57.0876 46.9137 57.8773 48.4653 58.4811C49.9713 59.1314 51.7511 59.4101 53.7134 59.4101Z" fill="#FFFFFF"/>
<path d="M24.5064 34.8362C22.7722 33.7214 20.8099 33.1641 18.7106 33.1641H6.93663H6.89099H6.5259H5.70446H0V59.0358H5.70446H6.5259H6.89099H6.93663H18.7106C20.7642 59.0358 22.6809 58.5248 24.4607 57.4565C26.2405 56.3882 27.6096 54.9483 28.6592 53.0904C29.7088 51.2325 30.2108 49.1423 30.2108 46.8199V45.2871C30.2108 43.104 29.7088 41.1067 28.7049 39.2488C27.6552 37.4373 26.2862 35.951 24.5064 34.8362ZM23.6393 47.0521C23.6393 48.3527 23.4111 49.421 22.9548 50.257C22.4984 51.1396 21.8595 51.7434 21.1293 52.1614C20.3992 52.5795 19.5777 52.8117 18.7106 52.8117H6.93663H6.89099H6.5259V39.3417H6.89099H6.93663H18.7106C19.6234 39.3417 20.4448 39.5739 21.2206 40.0849C21.9508 40.5958 22.544 41.2925 23.0004 42.175C23.4568 43.0576 23.6393 44.033 23.6393 45.1477V47.0521Z" fill="#FFFFFF"/>
<path d="M39.5197 33.0703H32.7656V58.942H39.5197V33.0703Z" fill="#FFFFFF"/>
<path d="M76.3485 58.942V38.0867H80.5927V33.0703H76.3485H69.5944H65.3047V38.0867H69.5944V58.942H76.3485Z" fill="#FFFFFF"/>
<path d="M104.004 45.6591C104.734 44.405 105.236 43.1509 105.419 41.8039L105.51 41.293C105.738 39.9924 105.693 38.6918 105.282 37.4842C104.917 36.2301 104.187 35.2082 103.091 34.4186C101.996 33.5825 100.581 33.2109 98.756 33.2109H85.3847L81.1406 59.0827H87.8947L89.4007 49.9323H95.1051L96.5655 59.0827H103L100.536 48.9569C100.673 48.9105 100.81 48.8176 100.901 48.7247C102.27 47.8886 103.274 46.8667 104.004 45.6591ZM91.4087 38.1345H97.1588C97.7977 38.1345 98.2997 38.3667 98.6191 38.7847C98.9386 39.2028 99.0298 39.853 98.8929 40.782L98.6647 42.0361C98.4822 43.058 98.1627 43.8012 97.7064 44.2656C97.25 44.7301 96.7024 44.9159 95.9722 44.9159H90.2221L91.4087 38.1345Z" fill="#FFFFFF"/>
<path d="M105.965 59.0358H112.719L116.963 33.1641H110.209L105.965 59.0358Z" fill="#FFFFFF"/>
<path d="M132.618 49.2817C132.253 50.35 131.888 51.1396 131.477 51.7435C131.112 52.3008 130.656 52.7189 130.199 52.9976C129.697 53.2298 129.15 53.3692 128.511 53.3692C127.781 53.3692 127.142 53.2298 126.64 52.9511C126.138 52.6724 125.727 52.3008 125.408 51.7899C125.134 51.279 124.997 50.6287 124.997 49.8855V42.4073C124.997 41.2926 125.316 40.4101 125.91 39.7598C126.549 39.1095 127.461 38.7844 128.693 38.7844C129.287 38.7844 129.834 38.9237 130.336 39.156C130.838 39.3882 131.249 39.8062 131.66 40.3172C132.025 40.8746 132.344 41.6177 132.573 42.5467L138.14 40.7817C137.684 38.3199 136.634 36.3691 134.991 34.9292C133.348 33.4428 131.203 32.7461 128.465 32.7461C126.184 32.7461 124.312 33.2106 122.761 34.1395C121.209 35.0685 120.068 36.2762 119.338 37.7625C118.562 39.2489 118.197 40.8745 118.197 42.5931V49.5604C118.197 51.279 118.562 52.8582 119.338 54.3446C120.114 55.8309 121.301 57.0386 122.898 57.9675C124.495 58.8965 126.457 59.361 128.83 59.361C131.569 59.361 133.713 58.6178 135.174 57.1315C136.68 55.6451 137.638 53.6478 138.14 51.1396L132.618 49.2817Z" fill="#FFFFFF"/>
<path d="M145.03 58.942H151.784V38.0867H156.028V33.0703H151.784H145.03H140.74V38.0867H145.03V58.942Z" fill="#FFFFFF"/>
<path d="M4.74611 25.2214C6.34336 26.1504 8.3057 26.6149 10.6788 26.6149C13.4169 26.6149 15.5161 25.8717 17.0221 24.3854C18.5281 22.899 19.4864 20.9017 19.9884 18.3935L14.4209 16.5356C14.0558 17.6039 13.6907 18.3935 13.28 18.9974C12.9149 19.5547 12.4585 19.9728 12.0022 20.2515C11.5002 20.4837 10.9526 20.6231 10.3137 20.6231C9.5835 20.6231 8.9446 20.4837 8.44261 20.205C7.94061 19.9263 7.52989 19.5547 7.21044 19.0438C6.93663 18.5329 6.79972 17.8826 6.79972 17.1394V9.66125C6.79972 8.54649 7.11917 7.66398 7.71244 7.0137C8.35134 6.36342 9.26405 6.03828 10.4962 6.03828C11.0895 6.03828 11.6371 6.17763 12.1391 6.40987C12.6411 6.64211 13.0518 7.06015 13.4625 7.57108C13.8276 8.12846 14.1471 8.87163 14.3752 9.8006L19.9428 8.03556C19.4864 5.5738 18.4368 3.62297 16.7939 2.18307C15.1511 0.696727 13.0062 0 10.268 0C7.98625 0 6.11519 0.464483 4.56357 1.39345C3.01196 2.32242 1.87106 3.53007 1.14089 5.01642C0.365086 6.50277 0 8.12846 0 9.84705V16.8143C0 18.5329 0.365086 20.1121 1.14089 21.5985C1.96234 23.0848 3.14886 24.2925 4.74611 25.2214Z" fill="#FFFFFF"/>
<path d="M99.3041 26.2893H100.126H100.536H108.842C110.896 26.2893 112.812 25.7783 114.592 24.71C116.372 23.6417 117.741 22.2018 118.791 20.3439C119.84 18.4859 120.342 16.3958 120.342 14.0733V12.5406C120.342 10.3575 119.84 8.3602 118.836 6.50227C117.832 4.64434 116.463 3.15799 114.683 2.04323C112.949 0.928473 110.987 0.371094 108.888 0.371094H100.582H100.171H99.3041H97.0223H93.5996V26.2428H97.0223H99.3041V26.2893ZM100.536 6.59517H108.842C109.755 6.59517 110.576 6.82741 111.352 7.33834C112.082 7.84927 112.675 8.546 113.132 9.42852C113.588 10.311 113.771 11.2865 113.771 12.4012V14.3056C113.771 15.6061 113.542 16.6745 113.086 17.5105C112.63 18.393 111.991 18.9969 111.261 19.4149C110.53 19.8329 109.709 20.0652 108.842 20.0652H100.536H100.126V6.59517H100.536Z" fill="#FFFFFF"/>
<path d="M29.299 26.2897H37.9242V21.2268H29.299V0.417969H22.5449V26.2897H24.918H29.299Z" fill="#FFFFFF"/>
<path d="M71.3734 25.3603C72.6968 26.1964 74.5222 26.6144 76.8953 26.6144C79.2683 26.6144 81.2763 26.1964 82.8279 25.3603C84.4252 24.5242 85.6117 23.4559 86.4331 22.1554C87.2546 20.8548 87.8022 19.4149 88.0304 17.7892L90.9055 0.371094H84.1514L81.3676 17.3247C81.1394 18.5324 80.7287 19.4149 80.1354 19.9258C79.4965 20.4368 78.7207 20.7155 77.7624 20.7155C76.804 20.7155 76.1195 20.4368 75.7088 19.9258C75.2524 19.4149 75.1611 18.5324 75.3437 17.3247L78.1275 0.371094H71.3734L68.4983 17.7892C68.2245 19.3685 68.3158 20.8084 68.7265 22.1554C69.2285 23.4559 70.0499 24.5242 71.3734 25.3603Z" fill="#FFFFFF"/>
<path d="M45.1335 25.0356C47.1871 26.104 49.6514 26.6613 52.5721 26.6613C55.4472 26.6613 57.8658 26.104 59.9194 25.0356C61.9731 23.9673 63.5247 22.481 64.5743 20.6695C65.6239 18.8116 66.1715 16.8143 66.1715 14.6312V11.5192C66.1715 9.42901 65.6695 7.52463 64.6199 5.75959C63.5703 3.99456 62.0187 2.60111 59.9651 1.57924C57.9115 0.510932 55.4472 0 52.5721 0C49.6514 0 47.1871 0.510932 45.1335 1.57924C43.0799 2.64756 41.5283 4.041 40.5243 5.75959C39.5203 7.47818 38.9727 9.38256 38.9727 11.4727V14.5848C38.9727 16.8143 39.4746 18.8116 40.5243 20.6695C41.5739 22.481 43.1255 23.9673 45.1335 25.0356ZM45.7724 11.3798C45.7724 9.7077 46.3656 8.40715 47.5522 7.43173C48.7387 6.45632 50.4272 5.99183 52.6177 5.99183C54.8539 5.99183 56.588 6.45632 57.7746 7.43173C58.9611 8.40715 59.5544 9.8006 59.5544 11.6121V14.9099C59.5544 16.7214 58.9611 18.1148 57.7746 19.1367C56.588 20.1586 54.8995 20.6695 52.6177 20.6695C50.4272 20.6695 48.7387 20.1586 47.5522 19.0903C46.3656 18.022 45.7724 16.5821 45.7724 14.7241V11.3798Z" fill="#FFFFFF"/>
<path d="M173.826 53.9258H158.584V58.9429H173.826V53.9258Z" fill="#AFFC41"/>
</svg>
